<?xml version="1.0" encoding="utf-8"?>
<!-- Generator: Adobe Illustrator 16.0.0, SVG Export Plug-In . SVG Version: 6.00 Build 0)  -->
<!DOCTYPE svg PUBLIC "-//W3C//DTD SVG 1.1//EN" "http://www.w3.org/Graphics/SVG/1.1/DTD/svg11.dtd">
<svg version="1.1" id="Layer_1" xmlns="http://www.w3.org/2000/svg" xmlns:xlink="http://www.w3.org/1999/xlink" x="0px" y="0px"
	 width="160.5px" height="45.5px" viewBox="0 0 160.5 45.5" enable-background="new 0 0 160.5 45.5" xml:space="preserve">
<rect x="31.99" y="1.41" fill="none" width="266.002" height="74.131"/>
<text transform="matrix(1 0 0 1 31.9902 38.46)" fill="#6E6F72" font-family="'BrandonGrotesque-Light'" font-size="19.5">innovative design</text>
<g>
	<path fill="#6E6F72" d="M20.76,19.139c-1.96,2.59-5.068,4.266-8.567,4.266c-1.028,0-2.021-0.146-2.962-0.414
		c-0.393,0.947-0.612,1.985-0.612,3.075c0,0.322,0.021,0.638,0.059,0.949c0.272-0.035,0.549-0.055,0.83-0.055
		c3.457,0,6.259,2.8,6.259,6.256c0,0.284-0.019,0.564-0.057,0.839c0.312,0.037,0.633,0.059,0.955,0.059
		c4.444,0,8.048-3.602,8.048-8.048C24.712,23.117,23.125,20.538,20.76,19.139z"/>
	<path fill="#6E6F72" d="M16.664,18.02c1.497,0,2.895,0.409,4.096,1.119c1.361-1.799,2.169-4.04,2.169-6.471
		c0-5.93-4.806-10.735-10.736-10.735c-5.929,0-10.734,4.806-10.734,10.735c0,4.9,3.285,9.036,7.772,10.322
		C10.438,20.071,13.312,18.02,16.664,18.02z"/>
	<path fill="#6E6F72" d="M8.677,27.015c-3.062,0.407-5.428,3.026-5.428,6.201c0,3.456,2.801,6.26,6.258,6.26
		c3.173,0,5.79-2.36,6.202-5.421C12.027,33.618,9.109,30.698,8.677,27.015z"/>
</g>
<rect x="31.99" y="8.105" fill="none" width="154.493" height="22.499"/>
<text transform="matrix(1 0 0 1 31.9902 21.7559)" fill="#6E6F72" font-family="'BrandonGrotesque-Light'" font-size="19.5">designed by</text>
</svg>
